PathFileType	4	(x/y/z)	S01_BK_Cal.trc
DataRate	CameraRate	NumFrames	NumMarkers	Units	OrigDataRate	OrigDataStartFrame	OrigNumFrames
240	240	11	51	mm	240	1801	2400
Frame#	Time	Sternum			R.Acromium			L.Acromium			Top.Head			R.ASIS			L.ASIS			R.PSIS			L.PSIS			R.Great.Tro			L.Great.Tro			R.Iliac.Crest			L.Iliac.Crest			V.Sacral			R.Thigh.Upper.Post			R.Thigh.Lower.Ant			R.Thigh.Lower.Post			R.Thigh.Upper.Ant			R.Knee.Lat			R.Knee.Med			R.Shank.Upper.Post			R.Shank.Lower.Ant			R.Shank.Lower.Post			R.Shank.Upper.Ant			R.Ankle.Lat			R.Ankle.Med			R.Heel.Upper			R.Heel.Med			R.Heel.Lat			R.Toe.Lat			R.Toe.Med			R.Toe.Tip			L.Thigh.Upper.Post			L.Thigh.Lower.Ant			L.Thigh.Lower.Post			L.Thigh.Upper.Ant			L.Knee.Lat			L.Knee.Med			L.Shank.Upper.Post			L.Shank.Lower.Ant			L.Shank.Lower.Post			L.Shank.Upper.Ant			L.Ankle.Lat			L.Ankle.Med			L.Heel.Upper			L.Heel.Med			L.Heel.Lat			L.Toe.Lat			L.Toe.Med			L.Toe.Tip			Cervical.Spine			Back			
		X1	Y1	Z1	X2	Y2	Z2	X3	Y3	Z3	X4	Y4	Z4	X5	Y5	Z5	X6	Y6	Z6	X7	Y7	Z7	X8	Y8	Z8	X9	Y9	Z9	X10	Y10	Z10	X11	Y11	Z11	X12	Y12	Z12	X13	Y13	Z13	X14	Y14	Z14	X15	Y15	Z15	X16	Y16	Z16	X17	Y17	Z17	X18	Y18	Z18	X19	Y19	Z19	X20	Y20	Z20	X21	Y21	Z21	X22	Y22	Z22	X23	Y23	Z23	X24	Y24	Z24	X25	Y25	Z25	X26	Y26	Z26	X27	Y27	Z27	X28	Y28	Z28	X29	Y29	Z29	X30	Y30	Z30	X31	Y31	Z31	X32	Y32	Z32	X33	Y33	Z33	X34	Y34	Z34	X35	Y35	Z35	X36	Y36	Z36	X37	Y37	Z37	X38	Y38	Z38	X39	Y39	Z39	X40	Y40	Z40	X41	Y41	Z41	X42	Y42	Z42	X43	Y43	Z43	X44	Y44	Z44	X45	Y45	Z45	X46	Y46	Z46	X47	Y47	Z47	X48	Y48	Z48	X49	Y49	Z49	X50	Y50	Z50	X51	Y51	Z51	

1801	7.5	717.94	1271.3	277.67	560.93	1509.9	457.91	530.35	1520.1	130.88	461.66	1815.7	300.63	690.82	1001	431.68	690.2	1001.6	162.8	452.65	1030.8	341.09	449.75	1028.7	237.05	616.91	946.39	512.19	584.68	946.56	84.067	596.74	1096	496.03	574.61	1081.8	92.297	440.84	992.29	287.36	651.39	642.65	516.08	730.85	579.68	499.19	666.54	554.78	502.37	719.28	669.2	511.29	697.94	491.08	501.22	706.39	482.91	360.92	595.96	363.22	531.21	618.22	262.84	490.9	564.91	299.5	523.88	647.24	329.39	506.46	481.42	112.41	498.26	511.16	105.92	404.41	405.87	80.128	444.28	416.78	47.643	416.82	413.52	51.81	481.4	601.49	35.11	539.33	634.01	40.023	414.98	696.91	52.09	470.84	596.12	659.36	84.38	687.6	601.06	66.502	619.45	571.33	92.375	655.63	691.08	59.27	678.15	493.29	73.662	716.97	489.38	208.97	591.49	383.49	50.331	619.18	277.41	69.681	566.48	309.56	50.171	645.22	349.68	63.523	472.77	112.63	79.16	503.7	117.44	173.95	399.56	81.944	123.83	408.82	53.199	155.2	407.32	57.134	93.387	610.26	38.013	45.151	634.59	45.735	167.49	697.12	56.243	117.66	458.64	1550.2	302.32	416.86	1229	315.07
1802	7.5042	717.92	1271.3	277.69	560.92	1509.9	457.93	530.35	1520.1	130.91	461.66	1815.8	300.68	690.82	1001	431.69	690.19	1001.6	162.81	452.64	1030.8	341.1	449.75	1028.7	237.06	616.91	946.39	512.2	584.69	946.56	84.071	596.73	1096	496.04	574.61	1081.8	92.303	440.84	992.29	287.37	651.38	642.65	516.08	730.85	579.67	499.2	666.54	554.78	502.37	719.27	669.19	511.3	697.94	491.07	501.22	706.39	482.91	360.93	595.96	363.21	531.21	618.22	262.84	490.9	564.91	299.49	523.88	647.24	329.39	506.46	481.42	112.4	498.26	511.16	105.92	404.41	405.87	80.126	444.28	416.78	47.638	416.82	413.52	51.807	481.4	601.49	35.111	539.32	634.01	40.022	414.98	696.91	52.09	470.84	596.11	659.37	84.385	687.59	601.07	66.509	619.45	571.34	92.38	655.63	691.09	59.275	678.14	493.3	73.668	716.96	489.38	208.98	591.49	383.49	50.336	619.17	277.41	69.685	566.48	309.56	50.175	645.22	349.68	63.527	472.77	112.63	79.161	503.7	117.44	173.95	399.56	81.943	123.83	408.82	53.199	155.2	407.32	57.133	93.387	610.26	38.013	45.152	634.59	45.735	167.49	697.12	56.243	117.66	458.64	1550.2	302.34	416.85	1229	315.07
1803	7.5083	717.91	1271.3	277.7	560.91	1509.9	457.96	530.35	1520.2	130.94	461.67	1815.8	300.72	690.82	1001	431.7	690.19	1001.6	162.82	452.64	1030.8	341.1	449.75	1028.7	237.07	616.9	946.38	512.21	584.69	946.57	84.076	596.73	1096	496.05	574.62	1081.8	92.31	440.84	992.3	287.37	651.38	642.65	516.09	730.84	579.67	499.21	666.53	554.77	502.38	719.27	669.19	511.31	697.93	491.07	501.23	706.39	482.91	360.93	595.97	363.21	531.22	618.22	262.84	490.91	564.91	299.49	523.88	647.24	329.38	506.46	481.42	112.4	498.26	511.16	105.92	404.41	405.87	80.123	444.28	416.77	47.632	416.82	413.52	51.805	481.4	601.49	35.111	539.32	634.01	40.022	414.98	696.91	52.09	470.84	596.11	659.37	84.39	687.59	601.07	66.516	619.44	571.34	92.384	655.62	691.09	59.281	678.13	493.3	73.674	716.95	489.38	208.98	591.49	383.49	50.341	619.17	277.41	69.688	566.47	309.57	50.178	645.21	349.68	63.532	472.77	112.63	79.163	503.7	117.44	173.95	399.56	81.942	123.83	408.82	53.198	155.2	407.32	57.133	93.387	610.26	38.014	45.153	634.59	45.736	167.49	697.12	56.243	117.66	458.63	1550.2	302.37	416.84	1228.9	315.08
1804	7.5125	717.9	1271.3	277.71	560.9	1509.9	457.99	530.35	1520.2	130.97	461.67	1815.8	300.77	690.81	1001	431.71	690.19	1001.6	162.83	452.64	1030.8	341.11	449.75	1028.7	237.07	616.9	946.38	512.22	584.69	946.57	84.082	596.73	1096	496.05	574.63	1081.9	92.317	440.84	992.3	287.38	651.37	642.65	516.09	730.84	579.67	499.21	666.53	554.77	502.38	719.26	669.19	511.32	697.93	491.06	501.23	706.39	482.91	360.94	595.97	363.21	531.22	618.22	262.83	490.91	564.91	299.49	523.89	647.24	329.38	506.46	481.42	112.4	498.26	511.16	105.92	404.41	405.86	80.121	444.28	416.77	47.626	416.83	413.51	51.803	481.4	601.49	35.111	539.32	634.01	40.021	414.98	696.91	52.09	470.84	596.1	659.38	84.395	687.59	601.07	66.524	619.44	571.35	92.388	655.62	691.1	59.287	678.13	493.3	73.68	716.94	489.38	208.99	591.48	383.49	50.346	619.16	277.41	69.692	566.47	309.57	50.182	645.21	349.68	63.536	472.77	112.63	79.164	503.7	117.44	173.96	399.56	81.942	123.83	408.82	53.197	155.2	407.31	57.132	93.387	610.26	38.014	45.153	634.59	45.736	167.49	697.12	56.243	117.66	458.63	1550.2	302.4	416.82	1228.9	315.08
1805	7.5167	717.89	1271.3	277.72	560.89	1509.8	458.01	530.35	1520.2	130.99	461.67	1815.8	300.82	690.81	1001	431.73	690.19	1001.6	162.84	452.64	1030.8	341.12	449.75	1028.7	237.08	616.89	946.38	512.22	584.69	946.58	84.088	596.72	1096	496.06	574.63	1081.9	92.325	440.84	992.31	287.38	651.37	642.64	516.1	730.84	579.66	499.22	666.53	554.77	502.38	719.26	669.19	511.33	697.93	491.06	501.23	706.39	482.9	360.94	595.97	363.2	531.22	618.22	262.83	490.91	564.91	299.48	523.89	647.24	329.38	506.47	481.42	112.4	498.26	511.15	105.92	404.41	405.86	80.119	444.28	416.77	47.62	416.83	413.51	51.801	481.4	601.49	35.112	539.32	634.01	40.021	414.98	696.9	52.09	470.83	596.1	659.39	84.399	687.58	601.08	66.532	619.43	571.35	92.392	655.62	691.1	59.293	678.12	493.31	73.687	716.93	489.38	208.99	591.48	383.49	50.351	619.16	277.42	69.696	566.47	309.57	50.186	645.2	349.69	63.54	472.77	112.63	79.165	503.7	117.44	173.96	399.56	81.942	123.83	408.81	53.196	155.2	407.31	57.133	93.387	610.26	38.015	45.154	634.59	45.737	167.49	697.12	56.244	117.66	458.62	1550.2	302.43	416.81	1228.9	315.09
1806	7.5208	717.88	1271.3	277.74	560.87	1509.8	458.04	530.34	1520.2	131.02	461.68	1815.8	300.86	690.81	1001	431.74	690.18	1001.6	162.85	452.64	1030.8	341.12	449.75	1028.7	237.09	616.89	946.38	512.23	584.68	946.58	84.095	596.72	1096	496.07	574.64	1081.9	92.334	440.83	992.32	287.39	651.36	642.64	516.1	730.83	579.66	499.22	666.52	554.76	502.39	719.26	669.18	511.34	697.93	491.05	501.24	706.39	482.9	360.95	595.97	363.2	531.23	618.22	262.83	490.91	564.92	299.48	523.89	647.24	329.38	506.47	481.42	112.4	498.26	511.15	105.92	404.41	405.86	80.117	444.28	416.77	47.614	416.83	413.51	51.799	481.4	601.49	35.112	539.32	634.01	40.021	414.97	696.9	52.09	470.83	596.1	659.39	84.403	687.58	601.08	66.54	619.43	571.36	92.396	655.62	691.11	59.3	678.11	493.31	73.693	716.91	489.38	209	591.47	383.5	50.356	619.15	277.42	69.699	566.46	309.57	50.19	645.2	349.69	63.544	472.77	112.63	79.166	503.7	117.44	173.96	399.56	81.943	123.83	408.81	53.195	155.2	407.31	57.133	93.387	610.26	38.015	45.155	634.59	45.738	167.49	697.12	56.244	117.66	458.62	1550.3	302.45	416.8	1228.9	315.09
1807	7.525	717.87	1271.3	277.75	560.86	1509.8	458.07	530.34	1520.2	131.05	461.68	1815.8	300.91	690.8	1001	431.75	690.18	1001.6	162.86	452.64	1030.8	341.13	449.74	1028.7	237.1	616.88	946.37	512.24	584.68	946.59	84.103	596.72	1096	496.07	574.64	1081.9	92.344	440.83	992.32	287.4	651.36	642.64	516.11	730.83	579.65	499.23	666.52	554.76	502.39	719.25	669.18	511.35	697.93	491.05	501.24	706.39	482.9	360.95	595.98	363.2	531.23	618.22	262.83	490.91	564.92	299.48	523.89	647.24	329.37	506.47	481.42	112.39	498.27	511.15	105.92	404.41	405.86	80.115	444.28	416.76	47.608	416.84	413.51	51.797	481.4	601.49	35.113	539.32	634.01	40.02	414.97	696.9	52.09	470.83	596.09	659.4	84.407	687.58	601.09	66.549	619.42	571.37	92.399	655.62	691.11	59.307	678.11	493.32	73.699	716.9	489.39	209.01	591.47	383.5	50.361	619.15	277.42	69.703	566.46	309.57	50.194	645.19	349.69	63.549	472.77	112.63	79.167	503.7	117.44	173.96	399.56	81.944	123.83	408.81	53.194	155.2	407.31	57.133	93.387	610.26	38.016	45.155	634.59	45.738	167.49	697.12	56.245	117.66	458.61	1550.3	302.48	416.78	1228.9	315.1
1808	7.5292	717.85	1271.3	277.76	560.84	1509.8	458.1	530.34	1520.2	131.08	461.69	1815.8	300.96	690.8	1001	431.76	690.18	1001.6	162.87	452.64	1030.8	341.14	449.74	1028.7	237.1	616.88	946.37	512.25	584.68	946.59	84.111	596.72	1096	496.08	574.65	1081.9	92.355	440.83	992.33	287.41	651.36	642.64	516.11	730.83	579.65	499.23	666.52	554.76	502.39	719.25	669.18	511.35	697.93	491.05	501.24	706.39	482.9	360.96	595.98	363.19	531.23	618.22	262.82	490.91	564.92	299.47	523.89	647.24	329.37	506.47	481.42	112.39	498.27	511.15	105.92	404.41	405.86	80.114	444.28	416.76	47.602	416.84	413.51	51.795	481.4	601.49	35.113	539.32	634.01	40.02	414.97	696.9	52.09	470.83	596.09	659.41	84.41	687.58	601.1	66.557	619.42	571.37	92.402	655.62	691.12	59.314	678.1	493.32	73.706	716.89	489.39	209.01	591.46	383.5	50.366	619.15	277.43	69.706	566.45	309.57	50.198	645.19	349.7	63.553	472.77	112.63	79.168	503.7	117.44	173.96	399.56	81.945	123.83	408.81	53.193	155.2	407.31	57.133	93.387	610.26	38.017	45.156	634.59	45.739	167.49	697.12	56.245	117.66	458.6	1550.3	302.51	416.77	1228.9	315.1
1809	7.5333	717.84	1271.3	277.77	560.83	1509.8	458.13	530.34	1520.2	131.11	461.69	1815.8	301.01	690.8	1001	431.77	690.17	1001.6	162.88	452.64	1030.8	341.15	449.74	1028.7	237.12	616.88	946.37	512.26	584.67	946.6	84.12	596.72	1096	496.09	574.65	1081.9	92.367	440.83	992.33	287.42	651.36	642.63	516.12	730.83	579.65	499.24	666.52	554.75	502.4	719.25	669.17	511.36	697.93	491.04	501.24	706.39	482.9	360.96	595.98	363.19	531.23	618.23	262.82	490.91	564.92	299.47	523.89	647.24	329.37	506.47	481.42	112.39	498.27	511.15	105.92	404.41	405.86	80.112	444.28	416.76	47.597	416.84	413.51	51.793	481.4	601.49	35.113	539.32	634.01	40.02	414.97	696.9	52.09	470.83	596.09	659.41	84.413	687.58	601.1	66.566	619.42	571.38	92.405	655.62	691.12	59.321	678.09	493.33	73.712	716.87	489.39	209.02	591.46	383.5	50.371	619.14	277.43	69.71	566.45	309.58	50.202	645.19	349.7	63.557	472.77	112.63	79.169	503.7	117.43	173.96	399.56	81.946	123.83	408.81	53.192	155.21	407.31	57.134	93.387	610.26	38.017	45.157	634.59	45.74	167.49	697.12	56.246	117.66	458.59	1550.3	302.54	416.76	1228.9	315.1
1810	7.5375	717.83	1271.3	277.78	560.81	1509.8	458.15	530.33	1520.3	131.15	461.69	1815.8	301.06	690.8	1000.9	431.78	690.16	1001.6	162.89	452.64	1030.8	341.17	449.74	1028.7	237.13	616.87	946.36	512.26	584.67	946.61	84.129	596.72	1096	496.1	574.65	1081.9	92.379	440.82	992.34	287.43	651.36	642.63	516.12	730.83	579.64	499.24	666.52	554.75	502.4	719.25	669.17	511.37	697.93	491.04	501.24	706.39	482.9	360.96	595.98	363.19	531.23	618.23	262.82	490.91	564.93	299.47	523.89	647.25	329.37	506.47	481.42	112.39	498.27	511.15	105.92	404.41	405.86	80.111	444.28	416.75	47.592	416.84	413.51	51.791	481.4	601.49	35.114	539.32	634.01	40.02	414.97	696.9	52.09	470.83	596.09	659.42	84.416	687.58	601.11	66.574	619.41	571.39	92.408	655.62	691.13	59.328	678.09	493.33	73.718	716.86	489.39	209.03	591.45	383.51	50.375	619.14	277.44	69.713	566.44	309.58	50.205	645.18	349.7	63.562	472.77	112.63	79.17	503.7	117.43	173.96	399.56	81.947	123.83	408.81	53.191	155.21	407.31	57.134	93.388	610.26	38.018	45.157	634.59	45.741	167.49	697.12	56.247	117.66	458.59	1550.3	302.57	416.74	1228.9	315.11
1811	7.5417	717.82	1271.3	277.79	560.8	1509.8	458.18	530.33	1520.3	131.18	461.7	1815.8	301.12	690.79	1000.9	431.79	690.16	1001.6	162.89	452.64	1030.8	341.18	449.74	1028.8	237.14	616.87	946.36	512.27	584.66	946.61	84.139	596.72	1096	496.11	574.65	1081.9	92.393	440.82	992.34	287.45	651.36	642.63	516.12	730.83	579.64	499.25	666.52	554.75	502.4	719.25	669.17	511.37	697.93	491.04	501.25	706.39	482.89	360.96	595.99	363.18	531.23	618.23	262.82	490.91	564.93	299.47	523.9	647.25	329.36	506.47	481.42	112.39	498.27	511.15	105.91	404.41	405.85	80.109	444.28	416.75	47.587	416.85	413.51	51.789	481.4	601.49	35.114	539.31	634.01	40.019	414.97	696.9	52.09	470.83	596.08	659.43	84.419	687.58	601.11	66.582	619.41	571.39	92.411	655.62	691.14	59.335	678.08	493.34	73.724	716.85	489.39	209.03	591.45	383.51	50.38	619.13	277.44	69.716	566.44	309.58	50.209	645.18	349.71	63.566	472.77	112.63	79.171	503.7	117.43	173.96	399.56	81.949	123.83	408.81	53.19	155.21	407.31	57.134	93.388	610.26	38.019	45.158	634.59	45.742	167.49	697.12	56.247	117.66	458.58	1550.3	302.6	416.73	1228.9	315.11
